# xmcd CD database file
#
# Track frame offsets:
#	150
#	15533
#	29250
#	44743
#	59155
#	71347
#	85733
#
# Disc length: 1320 seconds
#
# Revision: 0
# Processed by: cddbd v1.5.2PL0 Copyright (c) Steve Scherf et al.
# Submitted via: CDex 1.51
#
DISCID=5a052607
DTITLE=Palominos - Come On In
DYEAR=2014
DGENRE=Country
TTITLE0=Come On In
TTITLE1=What's Her Name?
TTITLE2=No You Don't
TTITLE3=It Could Happen To Anyone
TTITLE4=Macon, Georgia
TTITLE5=Mr. Used To Be
TTITLE6=You Provide The Heartbreak (I'll Provide The Wine)
EXTD=YEAR: 2014
EXTT0=
EXTT1=
EXTT2=
EXTT3=
EXTT4=
EXTT5=
EXTT6=
PLAYORDER=
